<svg width="0" height="0" class="hidden">
<symbol xmlns="http://www.w3.org/2000/svg" viewBox="0 0 11 11" id="eject">
  <path d="M0 9.429h11V11H0zM5.5 0L.259 7.857h10.482z"></path>
</symbol>
<symbol xmlns="http://www.w3.org/2000/svg" viewBox="0 0 12.764 14.186" id="fingerprint">
  <path d="M10.503 1.752a.329.329 0 0 1-.163-.043 8.116 8.116 0 0 0-3.951-1 8.115 8.115 0 0 0-3.951 1 .355.355 0 0 1-.34-.624 9.025 9.025 0 0 1 8.568-.007.359.359 0 0 1-.163.674zM.357 5.476a.37.37 0 0 1-.206-.064.354.354 0 0 1-.085-.5A7.333 7.333 0 0 1 2.726 2.6a8.187 8.187 0 0 1 7.313-.007 7.361 7.361 0 0 1 2.664 2.301.356.356 0 0 1-.582.411 6.659 6.659 0 0 0-2.4-2.085 7.474 7.474 0 0 0-6.667.007 6.729 6.729 0 0 0-2.412 2.1.309.309 0 0 1-.277.149zm4.433 8.561a.333.333 0 0 1-.248-.106 7.17 7.17 0 0 1-1.426-1.872 6.3 6.3 0 0 1-.745-3.078 3.928 3.928 0 0 1 4.015-3.825 3.928 3.928 0 0 1 4.017 3.823.355.355 0 0 1-.709 0 3.218 3.218 0 0 0-3.308-3.113A3.218 3.218 0 0 0 3.081 8.98a5.557 5.557 0 0 0 .66 2.731 6.714 6.714 0 0 0 1.312 1.716.364.364 0 0 1 0 .5.389.389 0 0 1-.262.106zm5.086-1.312a3.82 3.82 0 0 1-2.2-.631A3.776 3.776 0 0 1 5.988 8.98a.355.355 0 0 1 .709 0 3.051 3.051 0 0 0 1.377 2.52 3.11 3.11 0 0 0 1.8.5 4.687 4.687 0 0 0 .738-.071.356.356 0 1 1 .121.7 4.844 4.844 0 0 1-.858.085zM8.45 14.186a.415.415 0 0 1-.092-.014 5.534 5.534 0 0 1-2.639-1.489 5.175 5.175 0 0 1-1.539-3.7 2.187 2.187 0 0 1 4.369 0 1.479 1.479 0 0 0 2.951 0 5 5 0 0 0-5.143-4.848 5.178 5.178 0 0 0-4.688 2.858 4.563 4.563 0 0 0-.418 1.986 7.048 7.048 0 0 0 .475 2.56.346.346 0 0 1-.206.454.352.352 0 0 1-.454-.206 7.9 7.9 0 0 1-.518-2.809 5.329 5.329 0 0 1 .482-2.3 5.886 5.886 0 0 1 5.327-3.259 5.713 5.713 0 0 1 5.852 5.554 2.187 2.187 0 0 1-4.369 0A1.428 1.428 0 0 0 6.364 7.6a1.428 1.428 0 0 0-1.475 1.376 4.467 4.467 0 0 0 1.326 3.2 4.823 4.823 0 0 0 2.319 1.312.352.352 0 0 1 .248.433.346.346 0 0 1-.333.27z"></path>
</symbol>
<symbol xmlns="http://www.w3.org/2000/svg" viewBox="0 0 12 17" id="microphone">
  <path d="M11.571 5.704a.414.414 0 0 0-.429.4V8.59a5.157 5.157 0 0 1-10.284 0V6.104a.43.43 0 0 0-.858 0V8.59a5.765 5.765 0 0 0 5.571 5.551v2.065H3.352a.4.4 0 1 0 0 .8h5.3a.4.4 0 1 0 0-.8H6.43v-2.065a5.765 5.765 0 0 0 5.571-5.551V6.104a.414.414 0 0 0-.43-.4z"></path>
  <path d="M6.265 0h-.53a3.3 3.3 0 0 0-3.3 3.3v5.5a3.3 3.3 0 0 0 3.3 3.3h.53a3.3 3.3 0 0 0 3.3-3.3V3.3a3.3 3.3 0 0 0-3.3-3.3zm2.5 4.332H7.323a.4.4 0 0 0 0 .8h1.442v1.103H7.323a.4.4 0 0 0 0 .8h1.442v1.103H7.323a.4.4 0 0 0 0 .8h1.439a2.506 2.506 0 0 1-2.5 2.37h-.53a2.506 2.506 0 0 1-2.5-2.37h1.439a.4.4 0 0 0 0-.8H3.229V7.031h1.442a.4.4 0 0 0 0-.8H3.229V5.127h1.442a.4.4 0 0 0 0-.8H3.229V3.3a2.506 2.506 0 0 1 1.419-2.256v1.124a.4.4 0 0 0 .8 0V.813a18.605 18.605 0 0 1 1.108 0v1.355a.4.4 0 0 0 .8 0V1.043A2.506 2.506 0 0 1 8.768 3.3z"></path>
</symbol>
<symbol xmlns="http://www.w3.org/2000/svg" viewBox="0 0 13.49 13.49" id="search">
  <path d="M9.641 8.484h-.609l-.216-.208a5.021 5.021 0 1 0-.54.54l.208.216v.609l3.856 3.849 1.149-1.149zm-4.628 0a3.471 3.471 0 1 1 3.471-3.471 3.466 3.466 0 0 1-3.471 3.471z"></path>
</symbol>


<!--***************************************************-->

<symbol xmlns="http://www.w3.org/2000/svg" viewbox="0 0 8.909 7" id="ic_play">
    <path d="M8,5v8.909l7-4.455Z" transform="translate(-5 15) rotate(-90)"/>
</symbol>  
    
<!--***************************************************-->

<symbol xmlns="http://www.w3.org/2000/svg" viewBox="0 0 22 15" id="searcheye">
  <path id="ic_remove_red_eye_24px" d="M12,4.5A11.827,11.827,0,0,0,1,12a11.817,11.817,0,0,0,22,0A11.827,11.827,0,0,0,12,4.5ZM12,17a5,5,0,1,1,5-5A5,5,0,0,1,12,17Zm0-8a3,3,0,1,0,3,3A3,3,0,0,0,12,9Z" transform="translate(-1 -4.5)"/>
</symbol>

<!--***************************************************-->

<symbol xmlns="http://www.w3.org/2000/svg" viewBox="0 0 5.207 9.414" id="fleche-droite">
	<path id="Tracé_19" data-name="Tracé 19" d="M1599.056,994.609l4,4-4,4" transform="translate(-1598.349 -993.902)" fill="none" stroke="#5bc6e8" stroke-linecap="round" stroke-linejoin="round" stroke-width="1"/>
</symbol>

<!--***************************************************-->
 <symbol xmlns="http://www.w3.org/2000/svg" viewBox="0 0 20.293 20.362" id="rss">
  <path d="M.003 6.934a13.25 13.25 0 0 1 9.471 3.933 13.617 13.617 0 0 1 3.933 9.494H9.494a9.544 9.544 0 0 0-2.781-6.748A9.385 9.385 0 0 0 0 10.821V6.935zm5.05 9.355a2.742 2.742 0 0 0-.989-.989 2.626 2.626 0 0 0-1.35-.361 2.692 2.692 0 0 0-1.361.361 2.626 2.626 0 0 0-.989.989 2.7 2.7 0 0 0-.361 1.361 2.632 2.632 0 0 0 .361 1.349 2.746 2.746 0 0 0 .989.989 2.629 2.629 0 0 0 1.361.373 2.554 2.554 0 0 0 1.35-.373 2.87 2.87 0 0 0 .989-.989 2.649 2.649 0 0 0 0-2.71zM.027 0a19.77 19.77 0 0 1 7.866 1.606 20.423 20.423 0 0 1 12.4 18.756h-3.91A16.486 16.486 0 0 0 6.377 5.213a16 16 0 0 0-6.353-1.3V.003z"
    fill="#999"></path>
</symbol>
<symbol xmlns="http://www.w3.org/2000/svg" viewBox="0 0 26.994 14.976" id="soundcloud">
  <path d="M1.587 7.982a.919.919 0 0 1 .262.648v3.635a1.162 1.162 0 0 1-.154.692.878.878 0 0 1-.554.277.968.968 0 0 1-.77-.185.866.866 0 0 1-.37-.754V8.659a.925.925 0 0 1 .277-.678.888.888 0 0 1 .647-.276.875.875 0 0 1 .662.277zm2.9-3.265a.909.909 0 0 1 .262.647v8.471a.636.636 0 0 1-.262.554 1.277 1.277 0 0 1-1.325 0 .631.631 0 0 1-.262-.554V5.364a.948.948 0 0 1 .924-.924.874.874 0 0 1 .659.277zm2.9 1.109a.955.955 0 0 1 .262.678v7.732a.638.638 0 0 1-.262.555 1.125 1.125 0 0 1-.662.184 1.192 1.192 0 0 1-.678-.184.62.62 0 0 1-.277-.555V6.504a.936.936 0 0 1 .277-.662.9.9 0 0 1 .678-.293.866.866 0 0 1 .653.277zm3.127-4.1v12.537q0 .71-.924.708t-.924-.708V1.726a1.184 1.184 0 0 1 .4-.954.944.944 0 0 1 .832-.246q.608.148.607 1.2zm16.48 9a4.259 4.259 0 0 1-4.251 4.25l-10.9-.031a.277.277 0 0 1-.185-.139.366.366 0 0 1-.062-.169V.99q0-.647.4-.77a6.92 6.92 0 0 1 1.663-.215 7.336 7.336 0 0 1 3.589.909 7.559 7.559 0 0 1 2.68 2.464 7.2 7.2 0 0 1 1.186 3.435 4.21 4.21 0 0 1 1.633-.308 4.07 4.07 0 0 1 2.988 1.233 4.024 4.024 0 0 1 1.25 2.99z"
    fill="#999"></path>
</symbol>
<symbol xmlns="http://www.w3.org/2000/svg" viewBox="0 0 26.868 26.897" id="spotify">
  <path d="M20.199 1.819a13.31 13.31 0 0 1 4.836 4.836 13.074 13.074 0 0 1 1.833 6.808A13.426 13.426 0 1 1 20.199 1.82zm2.11 10.261a1.227 1.227 0 0 0 .785-.57 1.158 1.158 0 0 0 .139-.955 1.311 1.311 0 0 0-.57-.786 18.454 18.454 0 0 0-5.76-2.095 27.1 27.1 0 0 0-6.346-.555 23.3 23.3 0 0 0-5.575.832 1.226 1.226 0 0 0-.739.616 1.28 1.28 0 0 0-.108.971 1.174 1.174 0 0 0 .6.755 1.19 1.19 0 0 0 .955.091 19.306 19.306 0 0 1 4.959-.739 24.288 24.288 0 0 1 5.637.462 16.116 16.116 0 0 1 5.083 1.817 1.177 1.177 0 0 0 .941.156zm-.955 2.88a1.1 1.1 0 0 0-.477-.661 16.492 16.492 0 0 0-4.667-1.91 21.018 21.018 0 0 0-5.329-.616 19.144 19.144 0 0 0-5.16.739.98.98 0 0 0-.6.508 1.072 1.072 0 0 0 .431 1.432.969.969 0 0 0 .785.091 16.255 16.255 0 0 1 4.559-.677 18.5 18.5 0 0 1 4.759.555 14.433 14.433 0 0 1 4.112 1.693 1.034 1.034 0 0 0 .8.108 1 1 0 0 0 .647-.478.934.934 0 0 0 .141-.784zm-1.771 4.482a.794.794 0 0 0 .092-.646.88.88 0 0 0-.37-.524q-5.359-3.264-13.092-1.509a.864.864 0 0 0-.524.385.841.841 0 0 0 .262 1.155.764.764 0 0 0 .631.092q7.053-1.6 11.829 1.325a.94.94 0 0 0 .647.077.793.793 0 0 0 .524-.385z"
    fill="#999"></path>
</symbol>
<symbol xmlns="http://www.w3.org/2000/svg" viewBox="0 0 26.987 21.903" id="twitter">
  <path d="M24.211 5.481v.708a15.98 15.98 0 0 1-1.017 5.545 16.524 16.524 0 0 1-3.019 5.052 14.956 14.956 0 0 1-4.929 3.7A16.064 16.064 0 0 1 8.5 21.903a15.742 15.742 0 0 1-4.5-.647 15.3 15.3 0 0 1-4-1.817q.648.063 1.325.062a11.01 11.01 0 0 0 3.666-.616 11.485 11.485 0 0 0 3.2-1.725 5.531 5.531 0 0 1-3.2-1.124A5.339 5.339 0 0 1 3.05 13.31a5.513 5.513 0 0 0 1.017.092 5.654 5.654 0 0 0 1.448-.185 5.338 5.338 0 0 1-2.249-1.032 5.494 5.494 0 0 1-1.586-1.941 5.771 5.771 0 0 1-.6-2.449v-.093a5.2 5.2 0 0 0 2.526.709 5.588 5.588 0 0 1-1.8-1.987 5.419 5.419 0 0 1-.662-2.634 5.507 5.507 0 0 1 .739-2.772 15.8 15.8 0 0 0 11.4 5.79 6.452 6.452 0 0 1-.123-1.263 5.4 5.4 0 0 1 .739-2.772A5.6 5.6 0 0 1 15.917.755 5.335 5.335 0 0 1 18.674 0a5.484 5.484 0 0 1 4.035 1.757A10.714 10.714 0 0 0 26.221.402a5.347 5.347 0 0 1-.94 1.771 5.666 5.666 0 0 1-1.494 1.309 11.192 11.192 0 0 0 3.2-.893 11.558 11.558 0 0 1-2.776 2.892z"
    fill="#999"></path>
</symbol>
<symbol xmlns="http://www.w3.org/2000/svg" viewBox="0 0 26.954 23.508" id="vimeo">
  <path d="M.761 5.547Q1.715 4.5 2.702 3.576a23.344 23.344 0 0 1 2.618-2.1A7.607 7.607 0 0 1 8.062.244a2.2 2.2 0 0 1 2.125.616 5.7 5.7 0 0 1 1.2 2.4 31.2 31.2 0 0 1 .678 3.173q.37 2.31.554 3.05.74 2.9 1.14 3.974.554 1.417 1.094 1.417t1.54-1.309a27.582 27.582 0 0 0 2.2-3.527 4.866 4.866 0 0 0 .585-2.064 2.466 2.466 0 0 0-.431-1.6 1.694 1.694 0 0 0-1.294-.678 3.729 3.729 0 0 0-2.033.647 7.32 7.32 0 0 1 1.817-3.727A7.59 7.59 0 0 1 20.364.46a6.338 6.338 0 0 1 3.435-.37 3.58 3.58 0 0 1 2.5 1.663 5.375 5.375 0 0 1 .493 3.881 20.082 20.082 0 0 1-2.218 6.068 33.124 33.124 0 0 1-3.635 5.175 39.791 39.791 0 0 1-3.789 3.881 27.616 27.616 0 0 1-2.8 2.187 3.026 3.026 0 0 1-2.4.494 4.187 4.187 0 0 1-2-1.109 6.437 6.437 0 0 1-1.263-1.755A23.464 23.464 0 0 1 7.67 17.71q-.341-.986-1.355-4.374-.894-2.865-1.325-4.159a10 10 0 0 0-.893-2.218 1 1 0 0 0-1.109-.185 5.311 5.311 0 0 0-1.294.648l-.616.4L0 6.405z"
    fill="#999"></path>
</symbol>
<symbol xmlns="http://www.w3.org/2000/svg" viewBox="0 0 26.922 18.91" id="youtube">
  <path d="M26.922 9.459q0 2.25-.031 2.8-.124 1.819-.246 2.649a6.559 6.559 0 0 1-.4 1.51 3.031 3.031 0 0 1-.739 1.17 3.546 3.546 0 0 1-1.879.986q-5.853.432-12.475.308-3.882-.063-5.529-.139a18.207 18.207 0 0 1-2.449-.231 3.594 3.594 0 0 1-1.817-.955 4.171 4.171 0 0 1-.862-1.693 5.679 5.679 0 0 1-.231-.955q-.078-.492-.139-1.479a63.469 63.469 0 0 1 0-7.947L.31 3.974a7.092 7.092 0 0 1 .339-1.479 3.372 3.372 0 0 1 .8-1.232A3.926 3.926 0 0 1 3.266.339 31.543 31.543 0 0 1 7.009.092Q9.98 0 13.462 0t6.453.109q2.971.108 3.773.231a3.773 3.773 0 0 1 1.186.462 3.055 3.055 0 0 1 .909.8 5.63 5.63 0 0 1 .708 1.663 9.409 9.409 0 0 1 .308 1.756q0 .156.092 1.633c.02.371.031 1.311.031 2.805zm-12.414 1.51q2.433-1.231 3.45-1.787l-7.239-3.82v7.608q1.263-.7 3.789-2z"
    fill="#999"></path>
</symbol>

</svg>