<svg width="0" height="0" class="hidden">
  <symbol xmlns="http://www.w3.org/2000/svg" viewBox="0 0 11 11" id="eject">
    <path d="M0 9.429h11V11H0zM5.5 0L.259 7.857h10.482z"></path>
  </symbol>
  <symbol xmlns="http://www.w3.org/2000/svg" viewBox="0 0 12.764 14.186" id="fingerprint">
    <path d="M10.503 1.752a.329.329 0 0 1-.163-.043 8.116 8.116 0 0 0-3.951-1 8.115 8.115 0 0 0-3.951 1 .355.355 0 0 1-.34-.624 9.025 9.025 0 0 1 8.568-.007.359.359 0 0 1-.163.674zM.357 5.476a.37.37 0 0 1-.206-.064.354.354 0 0 1-.085-.5A7.333 7.333 0 0 1 2.726 2.6a8.187 8.187 0 0 1 7.313-.007 7.361 7.361 0 0 1 2.664 2.301.356.356 0 0 1-.582.411 6.659 6.659 0 0 0-2.4-2.085 7.474 7.474 0 0 0-6.667.007 6.729 6.729 0 0 0-2.412 2.1.309.309 0 0 1-.277.149zm4.433 8.561a.333.333 0 0 1-.248-.106 7.17 7.17 0 0 1-1.426-1.872 6.3 6.3 0 0 1-.745-3.078 3.928 3.928 0 0 1 4.015-3.825 3.928 3.928 0 0 1 4.017 3.823.355.355 0 0 1-.709 0 3.218 3.218 0 0 0-3.308-3.113A3.218 3.218 0 0 0 3.081 8.98a5.557 5.557 0 0 0 .66 2.731 6.714 6.714 0 0 0 1.312 1.716.364.364 0 0 1 0 .5.389.389 0 0 1-.262.106zm5.086-1.312a3.82 3.82 0 0 1-2.2-.631A3.776 3.776 0 0 1 5.988 8.98a.355.355 0 0 1 .709 0 3.051 3.051 0 0 0 1.377 2.52 3.11 3.11 0 0 0 1.8.5 4.687 4.687 0 0 0 .738-.071.356.356 0 1 1 .121.7 4.844 4.844 0 0 1-.858.085zM8.45 14.186a.415.415 0 0 1-.092-.014 5.534 5.534 0 0 1-2.639-1.489 5.175 5.175 0 0 1-1.539-3.7 2.187 2.187 0 0 1 4.369 0 1.479 1.479 0 0 0 2.951 0 5 5 0 0 0-5.143-4.848 5.178 5.178 0 0 0-4.688 2.858 4.563 4.563 0 0 0-.418 1.986 7.048 7.048 0 0 0 .475 2.56.346.346 0 0 1-.206.454.352.352 0 0 1-.454-.206 7.9 7.9 0 0 1-.518-2.809 5.329 5.329 0 0 1 .482-2.3 5.886 5.886 0 0 1 5.327-3.259 5.713 5.713 0 0 1 5.852 5.554 2.187 2.187 0 0 1-4.369 0A1.428 1.428 0 0 0 6.364 7.6a1.428 1.428 0 0 0-1.475 1.376 4.467 4.467 0 0 0 1.326 3.2 4.823 4.823 0 0 0 2.319 1.312.352.352 0 0 1 .248.433.346.346 0 0 1-.333.27z"></path>
  </symbol>
  <symbol xmlns="http://www.w3.org/2000/svg" viewBox="0 0 12 17" id="microphone">
    <path d="M11.571 5.704a.414.414 0 0 0-.429.4V8.59a5.157 5.157 0 0 1-10.284 0V6.104a.43.43 0 0 0-.858 0V8.59a5.765 5.765 0 0 0 5.571 5.551v2.065H3.352a.4.4 0 1 0 0 .8h5.3a.4.4 0 1 0 0-.8H6.43v-2.065a5.765 5.765 0 0 0 5.571-5.551V6.104a.414.414 0 0 0-.43-.4z"></path>
    <path d="M6.265 0h-.53a3.3 3.3 0 0 0-3.3 3.3v5.5a3.3 3.3 0 0 0 3.3 3.3h.53a3.3 3.3 0 0 0 3.3-3.3V3.3a3.3 3.3 0 0 0-3.3-3.3zm2.5 4.332H7.323a.4.4 0 0 0 0 .8h1.442v1.103H7.323a.4.4 0 0 0 0 .8h1.442v1.103H7.323a.4.4 0 0 0 0 .8h1.439a2.506 2.506 0 0 1-2.5 2.37h-.53a2.506 2.506 0 0 1-2.5-2.37h1.439a.4.4 0 0 0 0-.8H3.229V7.031h1.442a.4.4 0 0 0 0-.8H3.229V5.127h1.442a.4.4 0 0 0 0-.8H3.229V3.3a2.506 2.506 0 0 1 1.419-2.256v1.124a.4.4 0 0 0 .8 0V.813a18.605 18.605 0 0 1 1.108 0v1.355a.4.4 0 0 0 .8 0V1.043A2.506 2.506 0 0 1 8.768 3.3z"></path>
  </symbol>
  <symbol xmlns="http://www.w3.org/2000/svg" viewBox="0 0 13.49 13.49" id="search">
    <path d="M9.641 8.484h-.609l-.216-.208a5.021 5.021 0 1 0-.54.54l.208.216v.609l3.856 3.849 1.149-1.149zm-4.628 0a3.471 3.471 0 1 1 3.471-3.471 3.466 3.466 0 0 1-3.471 3.471z"></path>
  </symbol>
</svg>