<svg xmlns="http://www.w3.org/2000/svg" width="241" height="241" viewBox="0 0 241 241">
  <g id="Groupe_165" data-name="Groupe 165" transform="translate(-150 -357)">
    <circle id="Ellipse_5" data-name="Ellipse 5" cx="120.5" cy="120.5" r="120.5" transform="translate(150 357)" fill="#f33"/>
    <g id="Groupe_146" data-name="Groupe 146" transform="translate(1315.593 402.617)">
      <path id="Tracé_71" data-name="Tracé 71" d="M-1228.242,119.8a22.643,22.643,0,0,1-14.051,4.844c-16.083,0-19.447-16.136-21.906-26.626-3.338-14.235-5.245-23.319-10.082-23.319-6.523,0-8.509,12.76-9.629,23.327-2.916,27.516-5.438,49.441-20.881,49.441-17.338,0-20.39-22.807-23.773-49.361-2.59-17.855-5.362-43.465-16.146-43.465-9.289,0-15.241,18.407-19.059,43.4-4.461,31.727-9.212,73.748-30.577,83.491.068.191-6.179-11.62-6.549-12.115.26-.028.516-.065,1.069-.168,14.489-5.212,20.048-34.488,25.28-71.231,4.948-34.76,10.116-59.421,29.834-59.421,20.988,0,23.667,32.615,27.092,59.43,2.4,16.594,5.041,33.4,12.827,33.4,6.527,0,8.439-21.489,9.951-33.4,2.452-22.673,6.556-39.364,20.559-39.364,13.361,0,15.25,13.59,20.807,37.636,1.862,8.057,6.011,12.308,11.182,12.308a17.552,17.552,0,0,0,8.876-2.45c1.253-.7,3.726-1.729,5.174-3.022C-1228.1,103.181-1228.378,119.837-1228.242,119.8Z" transform="translate(269.301 -35.21)" fill="#fff"/>
    </g>
  </g>
</svg>
