<svg xmlns="http://www.w3.org/2000/svg" width="43.828" height="37.062" viewBox="0 0 43.828 37.062">
  <g transform="translate(1400.852 -3.383)">
    <path id="Tracé_71" data-name="Tracé 71" d="M-1357.024,56.206c-.271.459-.568.925-.9,1.376-1.175,1.612-2.756,3.01-5,3.01-3.847,0-4.652-4.126-5.24-6.807-.8-3.64-1.255-5.962-2.412-5.962-1.56,0-2.036,3.262-2.3,5.964-.7,7.035-1.3,12.641-4.995,12.641-4.147,0-4.877-5.831-5.687-12.62-.62-4.565-1.283-11.113-3.862-11.113-2.222,0-3.646,4.706-4.559,11.1-1.193,9.073-2.015,21.491-8.871,21.864V71.55c3.653-.421,5.02-8.208,6.293-17.765,1.184-8.887,2.42-15.192,7.137-15.192,5.021,0,5.661,8.339,6.481,15.194.574,4.243,1.206,8.538,3.068,8.538,1.561,0,2.019-5.494,2.38-8.54.586-5.8,1.568-10.064,4.918-10.064,3.2,0,3.648,3.475,4.977,9.622.445,2.06,1.438,3.147,2.675,3.147,1.794,0,3.241-1.2,4.531-3.233.152-.241.31-.526.472-.836h0c.284-.543.582-1.168.9-1.818Z" transform="translate(0 -35.21)"/>
  </g>
</svg>
