<?xml version="1.0" encoding="utf-8"?>
<!-- Generator: Adobe Illustrator 24.1.2, SVG Export Plug-In . SVG Version: 6.00 Build 0)  -->
<svg version="1.1" id="Calque_1" xmlns="http://www.w3.org/2000/svg" xmlns:xlink="http://www.w3.org/1999/xlink" x="0px" y="0px"
	 width="20px" height="20px" viewBox="0 0 20 20" style="enable-background:new 0 0 20 20;" xml:space="preserve">
<g>
	<path style="fill:#5BC6E8;" d="M16,9.8c-0.4,0-0.7-0.3-0.9-0.7c-0.3-0.8-0.3-1.6-0.6-2.3C14.3,6.4,14,6,13.6,5.9
		c-0.4-0.1-0.7,0-1,0.3c-0.7,0.6-0.8,1.7-0.9,2.5c-0.1,0.9-0.1,1.9-0.5,2.7c-0.1,0.1-0.2,0.2-0.4,0.2c-0.5-0.2-0.7-1.1-0.7-1.7
		C10,9.1,10,8.2,9.8,7.4c-0.2-1-0.5-2.5-1.5-2.9C7.8,4.2,7.2,4.3,6.7,4.7c-0.4,0.4-0.7,1-0.8,1.5C5.7,6.9,5.6,7.6,5.5,8.4
		c-0.1,0.9-0.3,1.8-0.4,2.7c-0.1,0.7-0.2,1.4-0.5,2C4.5,13.5,4.3,14,4,14.2c-0.1,0.1-0.1,0.1-0.2,0.2c-0.1,0.1-0.1,0.1-0.2,0.2
		c0,0,0,0.1,0,0.1c0.1,0.4,0.4,0.7,0.6,1.1c0,0,0,0,0,0c1.2-0.8,1.5-2.4,1.7-3.7c0.2-1.5,0.3-3,0.7-4.4C6.7,7.2,6.8,6.9,7,6.5
		c0.1-0.3,0.3-0.6,0.6-0.8c0.9-0.5,1.3,1.7,1.4,2.2c0.2,1.3,0.2,2.6,0.7,3.8c0.2,0.5,0.5,1,1,1.1c0.4,0.1,0.9,0,1.2-0.3
		c0.4-0.4,0.5-1.1,0.6-1.7c0.1-0.7,0.1-1.3,0.2-2c0.1-0.4,0.3-2,1-1.5c0.3,0.2,0.4,0.7,0.4,1c0.1,0.4,0.1,0.8,0.2,1.2
		c0.1,0.5,0.3,1.1,0.8,1.3c0.4,0.2,0.9,0.2,1.3,0l0-1.2C16.3,9.8,16.2,9.8,16,9.8z"/>
	<path style="fill:#5BC6E8;" d="M10,0C4.5,0,0,4.5,0,10s4.5,10,10,10s10-4.5,10-10S15.5,0,10,0z M10,18.9c-4.9,0-8.9-4-8.9-8.9
		s4-8.9,8.9-8.9s8.9,4,8.9,8.9S14.9,18.9,10,18.9z"/>
</g>
</svg>
