<svg xmlns="http://www.w3.org/2000/svg" xmlns:xlink="http://www.w3.org/1999/xlink" x="0px" y="0px" viewBox="0 0 322.086 72">
	<path style="fill:#4AC7EB;" d="M209.28,0L6.647,0C2.991,0,0,2.991,0,6.647v58.706C0,69.009,2.991,72,6.647,72 l202.632,0c3.454,0,6.28-2.826,6.28-6.28V6.281C215.56,2.827,212.734,0,209.28,0z"/>
	<path style="fill:#4AC7EB;" d="M243.224,31.269c6.365,0,10.831,4.355,10.831,10.329 c0,9.771-9.938,15.13-23.84,14.516c-1.73-0.056-2.903-1.229-2.959-2.792c-0.111-1.731,1.284-3.238,3.35-3.071 c9.938,0.67,17.531-2.401,17.531-8.542c0-3.517-2.568-5.695-6.477-5.695c-2.01,0-3.405,0.614-4.41,0.614 c-1.452,0-2.792-1.117-2.792-2.736c0-0.726,0.279-1.507,1.005-2.177l8.654-8.933h-13.902c-1.675,0-3.015-1.34-3.015-2.959 c0-1.675,1.34-2.959,3.015-2.959h17.643c2.233,0,4.132,1.452,4.132,3.685c0,0.782-0.391,2.01-1.061,2.736L243.224,31.269z"/>
	<path style="fill:#4AC7EB;" d="M276.42,21.833c-5.862,0-10.888,3.908-11.837,10.943 c2.345-1.117,5.64-2.177,9.604-2.177c8.431,0,13.511,4.969,13.511,12.339c0,7.314-4.857,13.567-14.516,13.567 c-11.948,0-15.521-9.156-14.852-20.937c0.67-12.339,7.202-19.43,18.536-19.43c2.4,0,4.578,0.335,5.639,0.558 c1.508,0.335,2.513,1.396,2.513,2.848c0,1.619-1.061,2.792-2.959,2.792C281.053,22.335,279.49,21.833,276.42,21.833z M264.192,38.583c-0.335,8.04,3.015,12.227,9.156,12.227c5.751,0,8.375-3.461,8.375-7.705c0-4.578-3.127-6.979-8.375-6.979 C269.44,36.126,266.425,37.41,264.192,38.583z"/>
	<path style="fill:#4AC7EB;" d="M291.714,41.486c-0.224-2.959-0.224-7.537,0-10.44 c0.614-8.877,6.421-14.795,15.074-14.795c8.654,0,14.572,6.03,15.131,14.795c0.224,2.959,0.224,7.481,0,10.44 c-0.559,8.821-6.477,14.907-15.131,14.907C298.134,56.393,292.272,50.307,291.714,41.486z M315.945,40.872 c0.167-2.624,0.111-6.7,0-9.268c-0.335-6.085-3.797-9.659-9.157-9.659c-5.304,0-8.765,3.573-9.101,9.659 c-0.111,2.568-0.167,6.644,0,9.268c0.447,6.086,3.797,9.827,9.101,9.827C312.148,50.698,315.498,46.958,315.945,40.872z"/>
	<path style="fill:#231F20;" d="M27.747,42.714v10.384c0,1.619-1.396,3.071-3.015,3.071 c-1.619,0-2.959-1.452-2.959-3.071V20.996c0-2.401,1.508-4.299,4.355-4.299H37.35c7.146,0,13.121,4.914,13.121,12.953 c0,8.151-5.695,13.065-13.567,13.065H27.747z M36.792,36.796c5.471,0,7.649-2.903,7.649-7.091c0-4.243-2.345-7.09-7.426-7.09 h-9.268v14.181H36.792z"/>
	<path style="fill:#231F20;" d="M82.018,56.058c-1.229,0-2.345-0.726-2.792-1.954l-3.685-10.441h-16.75L55.107,54.16 c-0.447,1.172-1.619,1.898-2.792,1.898c-1.843,0-2.903-1.508-2.903-3.015c0-0.391,0.056-0.782,0.167-1.117l11.167-31.042 c1.117-3.238,3.573-4.801,6.477-4.801c2.847,0,5.304,1.563,6.476,4.801l11.111,31.042c0.112,0.335,0.167,0.67,0.167,1.005 C84.977,54.439,83.86,56.058,82.018,56.058z M60.69,38.192h12.953l-5.304-15.13c-0.167-0.503-0.558-0.838-1.116-0.838 c-0.614,0-1.005,0.335-1.173,0.838L60.69,38.192z"/>
	<path style="fill:#231F20;" d="M116.128,48.353h0.111c-0.056-2.233-0.223-5.192-0.223-8.709V19.6 c0-1.73,1.396-3.071,3.015-3.071c1.675,0,2.959,1.34,2.959,3.071v31.601c0,2.68-1.843,4.913-4.634,4.913 c-1.73,0-3.461-0.726-4.578-2.568L95.191,24.066h-0.167c0.056,2.345,0.223,5.75,0.223,8.989v19.988 c0,1.675-1.284,3.071-3.015,3.071c-1.619,0-2.959-1.452-2.959-3.071V21.61c0-2.792,1.898-5.025,4.746-5.025 c1.786,0,3.517,0.726,4.689,2.68L116.128,48.353z"/>
	<path style="fill:#231F20;" d="M243.224,31.269c6.365,0,10.831,4.355,10.831,10.329 c0,9.771-9.938,15.13-23.84,14.516c-1.73-0.056-2.903-1.229-2.959-2.792c-0.111-1.731,1.284-3.238,3.35-3.071 c9.938,0.67,17.531-2.401,17.531-8.542c0-3.517-2.568-5.695-6.477-5.695c-2.01,0-3.405,0.614-4.41,0.614 c-1.452,0-2.792-1.117-2.792-2.736c0-0.726,0.279-1.507,1.005-2.177l8.654-8.933h-13.902c-1.675,0-3.015-1.34-3.015-2.959 c0-1.675,1.34-2.959,3.015-2.959h17.643c2.233,0,4.132,1.452,4.132,3.685c0,0.782-0.391,2.01-1.061,2.736L243.224,31.269z"/>
	<path style="fill:#231F20;" d="M276.42,21.833c-5.862,0-10.888,3.908-11.837,10.943 c2.345-1.117,5.64-2.177,9.604-2.177c8.431,0,13.511,4.969,13.511,12.339c0,7.314-4.857,13.567-14.516,13.567 c-11.948,0-15.521-9.156-14.852-20.937c0.67-12.339,7.202-19.43,18.536-19.43c2.4,0,4.578,0.335,5.639,0.558 c1.508,0.335,2.513,1.396,2.513,2.848c0,1.619-1.061,2.792-2.959,2.792C281.053,22.335,279.49,21.833,276.42,21.833z M264.192,38.583c-0.335,8.04,3.015,12.227,9.156,12.227c5.751,0,8.375-3.461,8.375-7.705c0-4.578-3.127-6.979-8.375-6.979 C269.44,36.126,266.425,37.41,264.192,38.583z"/>
	<path style="fill:#231F20;" d="M291.714,41.486c-0.224-2.959-0.224-7.537,0-10.44 c0.614-8.877,6.421-14.795,15.074-14.795c8.654,0,14.572,6.03,15.131,14.795c0.224,2.959,0.224,7.481,0,10.44 c-0.559,8.821-6.477,14.907-15.131,14.907C298.134,56.393,292.272,50.307,291.714,41.486z M315.945,40.872 c0.167-2.624,0.111-6.7,0-9.268c-0.335-6.085-3.797-9.659-9.157-9.659c-5.304,0-8.765,3.573-9.101,9.659 c-0.111,2.568-0.167,6.644,0,9.268c0.447,6.086,3.797,9.827,9.101,9.827C312.148,50.698,315.498,46.958,315.945,40.872z"/>
	<path style="fill:#231F20;" d="M154.269,32.003c1.98-14.867,4.048-25.414,11.939-25.414 c8.399,0,9.471,13.95,10.841,25.418c0.96,7.097,2.017,14.283,5.133,14.283c2.612,0,3.377-9.191,3.982-14.287 c0.981-9.697,2.623-16.836,8.227-16.836c5.346,0,6.103,5.813,8.326,16.097c0.745,3.446,2.405,5.264,4.474,5.264 c3.002,0,5.422-2,7.579-5.408c0.255-0.403,0.519-0.88,0.789-1.398V6.281c0-3.454-2.826-6.281-6.28-6.281l-65.538,0v61.721 C149.853,61.016,152.14,47.99,154.269,32.003z"/>
	<path style="fill:#231F20;" d="M207.192,43.391c-6.436,0-7.782-6.902-8.766-11.388 c-1.336-6.088-2.099-9.974-4.034-9.974c-2.61,0-3.405,5.457-3.853,9.977c-1.167,11.769-2.176,21.146-8.356,21.146 c-6.938,0-8.159-9.754-9.513-21.112c-1.037-7.636-2.146-18.59-6.461-18.59c-3.717,0-6.099,7.873-7.627,18.562 c-1.996,15.179-3.371,35.952-14.839,36.575V72l65.538,0c3.454,0,6.28-2.826,6.28-6.281V38.355 C213.594,41.051,210.949,43.391,207.192,43.391z"/>
</svg>