<svg width="0" height="0" class="hidden">
<symbol xmlns="http://www.w3.org/2000/svg" viewBox="0 0 11 11" id="eject">
	<path d="M0 9.429h11V11H0zM5.5 0L.259 7.857h10.482z"></path>
</symbol>
<symbol xmlns="http://www.w3.org/2000/svg" viewBox="0 0 12.764 14.186" id="fingerprint">
	<path d="M10.503 1.752a.329.329 0 0 1-.163-.043 8.116 8.116 0 0 0-3.951-1 8.115 8.115 0 0 0-3.951 1 .355.355 0 0 1-.34-.624 9.025 9.025 0 0 1 8.568-.007.359.359 0 0 1-.163.674zM.357 5.476a.37.37 0 0 1-.206-.064.354.354 0 0 1-.085-.5A7.333 7.333 0 0 1 2.726 2.6a8.187 8.187 0 0 1 7.313-.007 7.361 7.361 0 0 1 2.664 2.301.356.356 0 0 1-.582.411 6.659 6.659 0 0 0-2.4-2.085 7.474 7.474 0 0 0-6.667.007 6.729 6.729 0 0 0-2.412 2.1.309.309 0 0 1-.277.149zm4.433 8.561a.333.333 0 0 1-.248-.106 7.17 7.17 0 0 1-1.426-1.872 6.3 6.3 0 0 1-.745-3.078 3.928 3.928 0 0 1 4.015-3.825 3.928 3.928 0 0 1 4.017 3.823.355.355 0 0 1-.709 0 3.218 3.218 0 0 0-3.308-3.113A3.218 3.218 0 0 0 3.081 8.98a5.557 5.557 0 0 0 .66 2.731 6.714 6.714 0 0 0 1.312 1.716.364.364 0 0 1 0 .5.389.389 0 0 1-.262.106zm5.086-1.312a3.82 3.82 0 0 1-2.2-.631A3.776 3.776 0 0 1 5.988 8.98a.355.355 0 0 1 .709 0 3.051 3.051 0 0 0 1.377 2.52 3.11 3.11 0 0 0 1.8.5 4.687 4.687 0 0 0 .738-.071.356.356 0 1 1 .121.7 4.844 4.844 0 0 1-.858.085zM8.45 14.186a.415.415 0 0 1-.092-.014 5.534 5.534 0 0 1-2.639-1.489 5.175 5.175 0 0 1-1.539-3.7 2.187 2.187 0 0 1 4.369 0 1.479 1.479 0 0 0 2.951 0 5 5 0 0 0-5.143-4.848 5.178 5.178 0 0 0-4.688 2.858 4.563 4.563 0 0 0-.418 1.986 7.048 7.048 0 0 0 .475 2.56.346.346 0 0 1-.206.454.352.352 0 0 1-.454-.206 7.9 7.9 0 0 1-.518-2.809 5.329 5.329 0 0 1 .482-2.3 5.886 5.886 0 0 1 5.327-3.259 5.713 5.713 0 0 1 5.852 5.554 2.187 2.187 0 0 1-4.369 0A1.428 1.428 0 0 0 6.364 7.6a1.428 1.428 0 0 0-1.475 1.376 4.467 4.467 0 0 0 1.326 3.2 4.823 4.823 0 0 0 2.319 1.312.352.352 0 0 1 .248.433.346.346 0 0 1-.333.27z"></path>
</symbol>
<symbol xmlns="http://www.w3.org/2000/svg" viewBox="0 0 12 17" id="microphone">
	<path d="M11.571 5.704a.414.414 0 0 0-.429.4V8.59a5.157 5.157 0 0 1-10.284 0V6.104a.43.43 0 0 0-.858 0V8.59a5.765 5.765 0 0 0 5.571 5.551v2.065H3.352a.4.4 0 1 0 0 .8h5.3a.4.4 0 1 0 0-.8H6.43v-2.065a5.765 5.765 0 0 0 5.571-5.551V6.104a.414.414 0 0 0-.43-.4z"></path>
	<path d="M6.265 0h-.53a3.3 3.3 0 0 0-3.3 3.3v5.5a3.3 3.3 0 0 0 3.3 3.3h.53a3.3 3.3 0 0 0 3.3-3.3V3.3a3.3 3.3 0 0 0-3.3-3.3zm2.5 4.332H7.323a.4.4 0 0 0 0 .8h1.442v1.103H7.323a.4.4 0 0 0 0 .8h1.442v1.103H7.323a.4.4 0 0 0 0 .8h1.439a2.506 2.506 0 0 1-2.5 2.37h-.53a2.506 2.506 0 0 1-2.5-2.37h1.439a.4.4 0 0 0 0-.8H3.229V7.031h1.442a.4.4 0 0 0 0-.8H3.229V5.127h1.442a.4.4 0 0 0 0-.8H3.229V3.3a2.506 2.506 0 0 1 1.419-2.256v1.124a.4.4 0 0 0 .8 0V.813a18.605 18.605 0 0 1 1.108 0v1.355a.4.4 0 0 0 .8 0V1.043A2.506 2.506 0 0 1 8.768 3.3z"></path>
</symbol>
<symbol xmlns="http://www.w3.org/2000/svg" viewBox="0 0 13.49 13.49" id="search">
	<path d="M9.641 8.484h-.609l-.216-.208a5.021 5.021 0 1 0-.54.54l.208.216v.609l3.856 3.849 1.149-1.149zm-4.628 0a3.471 3.471 0 1 1 3.471-3.471 3.466 3.466 0 0 1-3.471 3.471z"></path>
</symbol>




<symbol xmlns="http://www.w3.org/2000/svg" viewbox="0 0 8.909 7" id="ic_play">
	<path d="M8,5v8.909l7-4.455Z" transform="translate(-5 15) rotate(-90)"/>
</symbol>  
    


<symbol xmlns="http://www.w3.org/2000/svg" viewBox="0 0 22 15" id="searcheye">
	<path id="ic_remove_red_eye_24px" d="M12,4.5A11.827,11.827,0,0,0,1,12a11.817,11.817,0,0,0,22,0A11.827,11.827,0,0,0,12,4.5ZM12,17a5,5,0,1,1,5-5A5,5,0,0,1,12,17Zm0-8a3,3,0,1,0,3,3A3,3,0,0,0,12,9Z" transform="translate(-1 -4.5)"/>
</symbol>



<symbol xmlns="http://www.w3.org/2000/svg" viewBox="0 0 5.207 9.414" id="fleche-droite">
	<path id="Tracé_19" data-name="Tracé 19" d="M1599.056,994.609l4,4-4,4" transform="translate(-1598.349 -993.902)" fill="none" stroke="#5bc6e8" stroke-linecap="round" stroke-linejoin="round" stroke-width="1"/>
</symbol>



<symbol xmlns="http://www.w3.org/2000/svg" viewBox="0 0 19 8" id="fleche-lien">
	<path id="ic_trending_flat_24px" d="M22,12,18,8v3H3v2H18v3Z" transform="translate(-3 -8)"/>
</symbol>



<symbol xmlns="http://www.w3.org/2000/svg" viewBox="0 0 28 28" id="slider-left-arrow">
	<circle cx="14" cy="14" r="14" fill="#fff"/>
	<path d="M315.9,469.449l-5.99-5.99,5.99-5.99" transform="translate(-299.5 -449.459)" fill="none" stroke="#333" stroke-linecap="round" stroke-linejoin="round" stroke-width="2"/>
</symbol>



<symbol xmlns="http://www.w3.org/2000/svg" viewBox="0 0 28 28" id="slider-right-arrow">
	<circle cx="14" cy="14" r="14" fill="#fff"/>
	<path d="M1598.453,457.468l5.99,5.99-5.99,5.99" transform="translate(-1586.851 -449.459)" fill="none" stroke="#333" stroke-linecap="round" stroke-linejoin="round" stroke-width="2"/>
</symbol>



<symbol xmlns="http://www.w3.org/2000/svg" viewBox="0 0 28 28" id="instagram" >
	<path d="M27.916,8.228c-0.068-1.49-0.305-2.508-0.651-3.398c-0.358-0.921-0.836-1.701-1.615-2.48c-0.778-0.778-1.559-1.257-2.48-1.615c-0.891-0.346-1.908-0.583-3.398-0.651C18.279,0.016,17.802,0,14,0c-3.802,0-4.279,0.016-5.772,0.084C6.738,0.152,5.72,0.389,4.829,0.735C3.909,1.093,3.128,1.571,2.35,2.35c-0.778,0.778-1.257,1.559-1.615,2.48C0.389,5.72,0.152,6.738,0.084,8.228C0.016,9.721,0,10.198,0,14c0,3.802,0.016,4.279,0.084,5.772c0.068,1.49,0.305,2.508,0.651,3.398c0.358,0.921,0.836,1.701,1.615,2.48c0.778,0.778,1.559,1.257,2.48,1.615c0.891,0.346,1.908,0.583,3.398,0.651C9.721,27.984,10.198,28,14,28c3.802,0,4.279-0.016,5.772-0.084c1.49-0.068,2.508-0.305,3.398-0.651c0.921-0.358,1.701-0.836,2.48-1.615c0.778-0.778,1.257-1.559,1.615-2.48c0.346-0.891,0.583-1.908,0.651-3.398C27.984,18.279,28,17.802,28,14S27.984,9.721,27.916,8.228z M25.396,19.657c-0.062,1.365-0.29,2.106-0.482,2.6c-0.254,0.653-0.557,1.12-1.047,1.61c-0.49,0.49-0.956,0.793-1.61,1.047c-0.493,0.192-1.235,0.42-2.6,0.482c-1.476,0.067-1.919,0.082-5.657,0.082s-4.181-0.014-5.657-0.082c-1.365-0.062-2.106-0.29-2.6-0.482c-0.653-0.254-1.12-0.557-1.61-1.047c-0.49-0.49-0.793-0.956-1.047-1.61c-0.192-0.493-0.42-1.235-0.482-2.6C2.537,18.181,2.523,17.738,2.523,14s0.014-4.181,0.082-5.657c0.062-1.365,0.29-2.106,0.482-2.6c0.254-0.653,0.557-1.12,1.047-1.61c0.49-0.49,0.956-0.793,1.61-1.047c0.493-0.192,1.235-0.42,2.6-0.482C9.819,2.537,10.262,2.523,14,2.523c3.738,0,4.181,0.014,5.657,0.082c1.365,0.062,2.106,0.29,2.6,0.482c0.653,0.254,1.12,0.557,1.61,1.047c0.49,0.49,0.793,0.956,1.047,1.61c0.192,0.493,0.42,1.235,0.482,2.6c0.067,1.476,0.082,1.919,0.082,5.657S25.463,18.181,25.396,19.657z"/>
	<path d="M14,6.811c-3.97,0-7.189,3.219-7.189,7.189c0,3.97,3.219,7.189,7.189,7.189S21.189,17.97,21.189,14C21.189,10.03,17.97,6.811,14,6.811z M14,18.667c-2.577,0-4.667-2.089-4.667-4.667c0-2.577,2.089-4.667,4.667-4.667c2.577,0,4.667,2.089,4.667,4.667C18.667,16.577,16.577,18.667,14,18.667z"/>
	<circle cx="21.473" cy="6.527" r="1.68"/>
</symbol>

<symbol xmlns="http://www.w3.org/2000/svg" viewBox="0 0 28 27.778" id="facebook">
	<path d="M14.054,0A14.029,14.029,0,0,0,.036,14.092,13.928,13.928,0,0,0,12,28.014V18H8V14h4V10.988c0-3.532,1.865-5.483,5.084-5.483A16.736,16.736,0,0,1,20,5.78V9H18.553A2.431,2.431,0,0,0,16,11.449V14h4.165l-.625,4H16V28.014A13.976,13.976,0,0,0,28.019,14.092,13.984,13.984,0,0,0,14.054,0Z" transform="translate(-0.036)"/>
</symbol>
<symbol xmlns="http://www.w3.org/2000/svg" viewBox="0 0 20.293 20.362" id="rss">
	<path d="M.003 6.934a13.25 13.25 0 0 1 9.471 3.933 13.617 13.617 0 0 1 3.933 9.494H9.494a9.544 9.544 0 0 0-2.781-6.748A9.385 9.385 0 0 0 0 10.821V6.935zm5.05 9.355a2.742 2.742 0 0 0-.989-.989 2.626 2.626 0 0 0-1.35-.361 2.692 2.692 0 0 0-1.361.361 2.626 2.626 0 0 0-.989.989 2.7 2.7 0 0 0-.361 1.361 2.632 2.632 0 0 0 .361 1.349 2.746 2.746 0 0 0 .989.989 2.629 2.629 0 0 0 1.361.373 2.554 2.554 0 0 0 1.35-.373 2.87 2.87 0 0 0 .989-.989 2.649 2.649 0 0 0 0-2.71zM.027 0a19.77 19.77 0 0 1 7.866 1.606 20.423 20.423 0 0 1 12.4 18.756h-3.91A16.486 16.486 0 0 0 6.377 5.213a16 16 0 0 0-6.353-1.3V.003z"/>
</symbol>
<symbol xmlns="http://www.w3.org/2000/svg" viewBox="0 0 26.994 14.976" id="soundcloud">
	<path d="M1.587 7.982a.919.919 0 0 1 .262.648v3.635a1.162 1.162 0 0 1-.154.692.878.878 0 0 1-.554.277.968.968 0 0 1-.77-.185.866.866 0 0 1-.37-.754V8.659a.925.925 0 0 1 .277-.678.888.888 0 0 1 .647-.276.875.875 0 0 1 .662.277zm2.9-3.265a.909.909 0 0 1 .262.647v8.471a.636.636 0 0 1-.262.554 1.277 1.277 0 0 1-1.325 0 .631.631 0 0 1-.262-.554V5.364a.948.948 0 0 1 .924-.924.874.874 0 0 1 .659.277zm2.9 1.109a.955.955 0 0 1 .262.678v7.732a.638.638 0 0 1-.262.555 1.125 1.125 0 0 1-.662.184 1.192 1.192 0 0 1-.678-.184.62.62 0 0 1-.277-.555V6.504a.936.936 0 0 1 .277-.662.9.9 0 0 1 .678-.293.866.866 0 0 1 .653.277zm3.127-4.1v12.537q0 .71-.924.708t-.924-.708V1.726a1.184 1.184 0 0 1 .4-.954.944.944 0 0 1 .832-.246q.608.148.607 1.2zm16.48 9a4.259 4.259 0 0 1-4.251 4.25l-10.9-.031a.277.277 0 0 1-.185-.139.366.366 0 0 1-.062-.169V.99q0-.647.4-.77a6.92 6.92 0 0 1 1.663-.215 7.336 7.336 0 0 1 3.589.909 7.559 7.559 0 0 1 2.68 2.464 7.2 7.2 0 0 1 1.186 3.435 4.21 4.21 0 0 1 1.633-.308 4.07 4.07 0 0 1 2.988 1.233 4.024 4.024 0 0 1 1.25 2.99z"/>
</symbol>
<symbol xmlns="http://www.w3.org/2000/svg" viewBox="0 0 26.868 26.897" id="spotify">
	<path d="M20.199 1.819a13.31 13.31 0 0 1 4.836 4.836 13.074 13.074 0 0 1 1.833 6.808A13.426 13.426 0 1 1 20.199 1.82zm2.11 10.261a1.227 1.227 0 0 0 .785-.57 1.158 1.158 0 0 0 .139-.955 1.311 1.311 0 0 0-.57-.786 18.454 18.454 0 0 0-5.76-2.095 27.1 27.1 0 0 0-6.346-.555 23.3 23.3 0 0 0-5.575.832 1.226 1.226 0 0 0-.739.616 1.28 1.28 0 0 0-.108.971 1.174 1.174 0 0 0 .6.755 1.19 1.19 0 0 0 .955.091 19.306 19.306 0 0 1 4.959-.739 24.288 24.288 0 0 1 5.637.462 16.116 16.116 0 0 1 5.083 1.817 1.177 1.177 0 0 0 .941.156zm-.955 2.88a1.1 1.1 0 0 0-.477-.661 16.492 16.492 0 0 0-4.667-1.91 21.018 21.018 0 0 0-5.329-.616 19.144 19.144 0 0 0-5.16.739.98.98 0 0 0-.6.508 1.072 1.072 0 0 0 .431 1.432.969.969 0 0 0 .785.091 16.255 16.255 0 0 1 4.559-.677 18.5 18.5 0 0 1 4.759.555 14.433 14.433 0 0 1 4.112 1.693 1.034 1.034 0 0 0 .8.108 1 1 0 0 0 .647-.478.934.934 0 0 0 .141-.784zm-1.771 4.482a.794.794 0 0 0 .092-.646.88.88 0 0 0-.37-.524q-5.359-3.264-13.092-1.509a.864.864 0 0 0-.524.385.841.841 0 0 0 .262 1.155.764.764 0 0 0 .631.092q7.053-1.6 11.829 1.325a.94.94 0 0 0 .647.077.793.793 0 0 0 .524-.385z"/>
</symbol>
<symbol xmlns="http://www.w3.org/2000/svg" viewBox="0 0 26.987 21.903" id="twitter">
	<path d="M24.211 5.481v.708a15.98 15.98 0 0 1-1.017 5.545 16.524 16.524 0 0 1-3.019 5.052 14.956 14.956 0 0 1-4.929 3.7A16.064 16.064 0 0 1 8.5 21.903a15.742 15.742 0 0 1-4.5-.647 15.3 15.3 0 0 1-4-1.817q.648.063 1.325.062a11.01 11.01 0 0 0 3.666-.616 11.485 11.485 0 0 0 3.2-1.725 5.531 5.531 0 0 1-3.2-1.124A5.339 5.339 0 0 1 3.05 13.31a5.513 5.513 0 0 0 1.017.092 5.654 5.654 0 0 0 1.448-.185 5.338 5.338 0 0 1-2.249-1.032 5.494 5.494 0 0 1-1.586-1.941 5.771 5.771 0 0 1-.6-2.449v-.093a5.2 5.2 0 0 0 2.526.709 5.588 5.588 0 0 1-1.8-1.987 5.419 5.419 0 0 1-.662-2.634 5.507 5.507 0 0 1 .739-2.772 15.8 15.8 0 0 0 11.4 5.79 6.452 6.452 0 0 1-.123-1.263 5.4 5.4 0 0 1 .739-2.772A5.6 5.6 0 0 1 15.917.755 5.335 5.335 0 0 1 18.674 0a5.484 5.484 0 0 1 4.035 1.757A10.714 10.714 0 0 0 26.221.402a5.347 5.347 0 0 1-.94 1.771 5.666 5.666 0 0 1-1.494 1.309 11.192 11.192 0 0 0 3.2-.893 11.558 11.558 0 0 1-2.776 2.892z"/>
</symbol>
<symbol xmlns="http://www.w3.org/2000/svg" viewBox="0 0 26.954 23.508" id="vimeo">
	<path d="M.761 5.547Q1.715 4.5 2.702 3.576a23.344 23.344 0 0 1 2.618-2.1A7.607 7.607 0 0 1 8.062.244a2.2 2.2 0 0 1 2.125.616 5.7 5.7 0 0 1 1.2 2.4 31.2 31.2 0 0 1 .678 3.173q.37 2.31.554 3.05.74 2.9 1.14 3.974.554 1.417 1.094 1.417t1.54-1.309a27.582 27.582 0 0 0 2.2-3.527 4.866 4.866 0 0 0 .585-2.064 2.466 2.466 0 0 0-.431-1.6 1.694 1.694 0 0 0-1.294-.678 3.729 3.729 0 0 0-2.033.647 7.32 7.32 0 0 1 1.817-3.727A7.59 7.59 0 0 1 20.364.46a6.338 6.338 0 0 1 3.435-.37 3.58 3.58 0 0 1 2.5 1.663 5.375 5.375 0 0 1 .493 3.881 20.082 20.082 0 0 1-2.218 6.068 33.124 33.124 0 0 1-3.635 5.175 39.791 39.791 0 0 1-3.789 3.881 27.616 27.616 0 0 1-2.8 2.187 3.026 3.026 0 0 1-2.4.494 4.187 4.187 0 0 1-2-1.109 6.437 6.437 0 0 1-1.263-1.755A23.464 23.464 0 0 1 7.67 17.71q-.341-.986-1.355-4.374-.894-2.865-1.325-4.159a10 10 0 0 0-.893-2.218 1 1 0 0 0-1.109-.185 5.311 5.311 0 0 0-1.294.648l-.616.4L0 6.405z"/>
</symbol>
<symbol xmlns="http://www.w3.org/2000/svg" viewBox="0 0 26.922 18.91" id="youtube">
	<path d="M26.922 9.459q0 2.25-.031 2.8-.124 1.819-.246 2.649a6.559 6.559 0 0 1-.4 1.51 3.031 3.031 0 0 1-.739 1.17 3.546 3.546 0 0 1-1.879.986q-5.853.432-12.475.308-3.882-.063-5.529-.139a18.207 18.207 0 0 1-2.449-.231 3.594 3.594 0 0 1-1.817-.955 4.171 4.171 0 0 1-.862-1.693 5.679 5.679 0 0 1-.231-.955q-.078-.492-.139-1.479a63.469 63.469 0 0 1 0-7.947L.31 3.974a7.092 7.092 0 0 1 .339-1.479 3.372 3.372 0 0 1 .8-1.232A3.926 3.926 0 0 1 3.266.339 31.543 31.543 0 0 1 7.009.092Q9.98 0 13.462 0t6.453.109q2.971.108 3.773.231a3.773 3.773 0 0 1 1.186.462 3.055 3.055 0 0 1 .909.8 5.63 5.63 0 0 1 .708 1.663 9.409 9.409 0 0 1 .308 1.756q0 .156.092 1.633c.02.371.031 1.311.031 2.805zm-12.414 1.51q2.433-1.231 3.45-1.787l-7.239-3.82v7.608q1.263-.7 3.789-2z"/>
</symbol>
<symbol xmlns="http://www.w3.org/2000/svg" viewBox="0 0 21.499 14.9" id="email">
  <path d="M3.246,14.9a3.381,3.381,0,0,1-1.906-.593L2,13.581,8.181,6.827l2.33,1.6.11.039h.037a.458.458,0,0,0,.058,0,.442.442,0,0,0,.057,0,.389.389,0,0,0,.115,0h.037L11,8.425l2.348-1.608L19.5,13.561l.649.711a3.553,3.553,0,0,1-2.007.624H3.384ZM.682,13.62h0A4.038,4.038,0,0,1,0,11.314L0,3.572A4.175,4.175,0,0,1,.5,1.554l.778.536L7.362,6.276,1.336,12.9l-.653.716Zm20.151,0h0l-.658-.725L14.153,6.257,20.23,2.09l.783-.531A3.985,3.985,0,0,1,21.5,3.586v7.728a3.817,3.817,0,0,1-.662,2.3ZM10.709,7.4h0l-2.3-1.583a.465.465,0,0,0-.166-.107L1.915,1.374,1.082.8A3.272,3.272,0,0,1,3.216,0c.065,0,.12,0,.168,0h14.8a3.5,3.5,0,0,1,2.212.8l-.838.575L10.71,7.4Z"/>
</symbol>


<symbol xmlns="http://www.w3.org/2000/svg" viewPort="0 0 0 0" viewBox="0 0 322 73" id="panm360">
	<path style="fill:#4AC7EB;" d="M209.28,0L6.647,0C2.991,0,0,2.991,0,6.647v58.706C0,69.009,2.991,72,6.647,72 l202.632,0c3.454,0,6.28-2.826,6.28-6.28V6.281C215.56,2.827,212.734,0,209.28,0z"/>
	<path style="fill:#231F20;" d="M37.35,16.696H26.128c-2.847,0-4.355,1.898-4.355,4.299v32.103c0,1.619,1.34,3.071,2.959,3.071c1.619,0,3.015-1.452,3.015-3.071V42.714h9.156c7.873,0,13.567-4.914,13.567-13.065C50.47,21.61,44.496,16.696,37.35,16.696z M36.792,36.796h-9.045V22.615h9.268c5.081,0,7.426,2.847,7.426,7.09C44.441,33.893,42.263,36.796,36.792,36.796z"/>
	<path style="fill:#231F20;" d="M73.698,20.884c-1.172-3.238-3.629-4.801-6.476-4.801c-2.903,0-5.36,1.563-6.477,4.801L49.579,51.926c-0.112,0.335-0.167,0.726-0.167,1.117c0,1.507,1.061,3.015,2.903,3.015c1.172,0,2.345-0.726,2.792-1.898l3.685-10.497h16.75l3.685,10.441c0.447,1.228,1.563,1.954,2.792,1.954c1.842,0,2.959-1.619,2.959-3.127c0-0.335-0.056-0.67-0.167-1.005L73.698,20.884z M60.69,38.192l5.36-15.13c0.167-0.503,0.559-0.838,1.173-0.838c0.558,0,0.949,0.335,1.116,0.838l5.304,15.13H60.69z"/>
	<path style="fill:#231F20;" d="M119.031,16.529c-1.619,0-3.015,1.34-3.015,3.071v20.044c0,3.517,0.167,6.476,0.223,8.709h-0.111l-17.42-29.088c-1.172-1.954-2.903-2.68-4.689-2.68c-2.848,0-4.746,2.233-4.746,5.025v31.433c0,1.619,1.34,3.071,2.959,3.071c1.731,0,3.015-1.396,3.015-3.071V33.055c0-3.238-0.167-6.644-0.223-8.989h0.167l17.587,29.479c1.117,1.843,2.848,2.568,4.578,2.568c2.792,0,4.634-2.233,4.634-4.913V19.6C121.99,17.869,120.706,16.529,119.031,16.529z"/>
	<path style="fill:#231F20;" d="M209.28,0l-65.538,0v61.721c6.111-0.705,8.398-13.731,10.527-29.718c1.98-14.867,4.048-25.414,11.939-25.414c8.399,0,9.471,13.95,10.841,25.418c0.96,7.097,2.017,14.283,5.133,14.283c2.612,0,3.377-9.191,3.982-14.287c0.981-9.697,2.623-16.836,8.227-16.836c5.346,0,6.103,5.813,8.326,16.097c0.745,3.446,2.405,5.264,4.474,5.264c3.002,0,5.422-2,7.579-5.408c0.255-0.403,0.519-0.88,0.789-1.398V6.281C215.56,2.827,212.734,0,209.28,0z"/>
	<path style="fill:#231F20;" d="M207.192,43.391c-6.436,0-7.782-6.902-8.766-11.388c-1.336-6.088-2.099-9.974-4.034-9.974c-2.61,0-3.405,5.457-3.853,9.977c-1.167,11.769-2.176,21.146-8.356,21.146c-6.938,0-8.159-9.754-9.513-21.112c-1.037-7.636-2.146-18.59-6.461-18.59c-3.717,0-6.099,7.873-7.627,18.562c-1.996,15.179-3.371,35.952-14.839,36.575V72l65.538,0c3.454,0,6.28-2.826,6.28-6.281V38.355C213.594,41.051,210.949,43.391,207.192,43.391z"/>
	<path style="fill:#231F20;" d="M243.224,31.269l7.705-7.984c0.67-0.726,1.061-1.954,1.061-2.736c0-2.233-1.898-3.685-4.132-3.685h-17.643c-1.675,0-3.015,1.284-3.015,2.959c0,1.619,1.34,2.959,3.015,2.959h13.902l-8.654,8.933c-0.726,0.67-1.005,1.452-1.005,2.177c0,1.619,1.34,2.736,2.792,2.736c1.005,0,2.4-0.614,4.41-0.614c3.908,0,6.477,2.178,6.477,5.695c0,6.142-7.593,9.212-17.531,8.542c-2.065-0.167-3.461,1.34-3.35,3.071c0.056,1.563,1.229,2.736,2.959,2.792c13.902,0.614,23.84-4.746,23.84-14.516C254.055,35.624,249.59,31.269,243.224,31.269z"/>
	<path style="fill:#231F20;" d="M274.186,30.599c-3.964,0-7.259,1.061-9.604,2.177c0.949-7.035,5.975-10.943,11.837-10.943c3.07,0,4.634,0.502,5.639,0.502c1.898,0,2.959-1.172,2.959-2.792c0-1.452-1.005-2.513-2.513-2.848c-1.061-0.223-3.238-0.558-5.639-0.558c-11.334,0-17.866,7.091-18.536,19.43c-0.67,11.78,2.903,20.937,14.852,20.937c9.658,0,14.516-6.253,14.516-13.567C287.697,35.568,282.617,30.599,274.186,30.599zM273.348,50.81c-6.142,0-9.491-4.187-9.156-12.227c2.233-1.172,5.248-2.457,9.156-2.457c5.248,0,8.375,2.401,8.375,6.979C281.723,47.348,279.099,50.81,273.348,50.81z"/>
	<path style="fill:#231F20;" d="M321.919,31.045c-0.559-8.766-6.477-14.795-15.131-14.795c-8.653,0-14.46,5.918-15.074,14.795c-0.224,2.903-0.224,7.481,0,10.44c0.559,8.821,6.421,14.907,15.074,14.907c8.654,0,14.572-6.086,15.131-14.907C322.142,38.527,322.142,34.004,321.919,31.045z M315.945,40.872c-0.447,6.086-3.797,9.827-9.157,9.827c-5.304,0-8.653-3.741-9.101-9.827c-0.167-2.624-0.111-6.7,0-9.268c0.336-6.085,3.797-9.659,9.101-9.659c5.36,0,8.822,3.573,9.157,9.659C316.056,34.172,316.112,38.248,315.945,40.872z"/>
</symbol>

<symbol xmlns="http://www.w3.org/2000/svg" viewPort="0 0 0 0" viewBox="0 0 322 73" id="panm360-bleu">
	<path style="fill:#4AC7EB;" d="M209.28,0L6.647,0C2.991,0,0,2.991,0,6.647v58.706C0,69.009,2.991,72,6.647,72 l202.632,0c3.454,0,6.28-2.826,6.28-6.28V6.281C215.56,2.827,212.734,0,209.28,0z"/>
	<path style="fill:#231F20;" d="M37.35,16.696H26.128c-2.847,0-4.355,1.898-4.355,4.299v32.103c0,1.619,1.34,3.071,2.959,3.071c1.619,0,3.015-1.452,3.015-3.071V42.714h9.156c7.873,0,13.567-4.914,13.567-13.065C50.47,21.61,44.496,16.696,37.35,16.696z M36.792,36.796h-9.045V22.615h9.268c5.081,0,7.426,2.847,7.426,7.09C44.441,33.893,42.263,36.796,36.792,36.796z"/>
	<path style="fill:#231F20;" d="M73.698,20.884c-1.172-3.238-3.629-4.801-6.476-4.801c-2.903,0-5.36,1.563-6.477,4.801L49.579,51.926c-0.112,0.335-0.167,0.726-0.167,1.117c0,1.507,1.061,3.015,2.903,3.015c1.172,0,2.345-0.726,2.792-1.898l3.685-10.497h16.75l3.685,10.441c0.447,1.228,1.563,1.954,2.792,1.954c1.842,0,2.959-1.619,2.959-3.127c0-0.335-0.056-0.67-0.167-1.005L73.698,20.884z M60.69,38.192l5.36-15.13c0.167-0.503,0.559-0.838,1.173-0.838c0.558,0,0.949,0.335,1.116,0.838l5.304,15.13H60.69z"/>
	<path style="fill:#231F20;" d="M119.031,16.529c-1.619,0-3.015,1.34-3.015,3.071v20.044c0,3.517,0.167,6.476,0.223,8.709h-0.111l-17.42-29.088c-1.172-1.954-2.903-2.68-4.689-2.68c-2.848,0-4.746,2.233-4.746,5.025v31.433c0,1.619,1.34,3.071,2.959,3.071c1.731,0,3.015-1.396,3.015-3.071V33.055c0-3.238-0.167-6.644-0.223-8.989h0.167l17.587,29.479c1.117,1.843,2.848,2.568,4.578,2.568c2.792,0,4.634-2.233,4.634-4.913V19.6C121.99,17.869,120.706,16.529,119.031,16.529z"/>
	<path style="fill:#231F20;" d="M209.28,0l-65.538,0v61.721c6.111-0.705,8.398-13.731,10.527-29.718c1.98-14.867,4.048-25.414,11.939-25.414c8.399,0,9.471,13.95,10.841,25.418c0.96,7.097,2.017,14.283,5.133,14.283c2.612,0,3.377-9.191,3.982-14.287c0.981-9.697,2.623-16.836,8.227-16.836c5.346,0,6.103,5.813,8.326,16.097c0.745,3.446,2.405,5.264,4.474,5.264c3.002,0,5.422-2,7.579-5.408c0.255-0.403,0.519-0.88,0.789-1.398V6.281C215.56,2.827,212.734,0,209.28,0z"/>
	<path style="fill:#231F20;" d="M207.192,43.391c-6.436,0-7.782-6.902-8.766-11.388c-1.336-6.088-2.099-9.974-4.034-9.974c-2.61,0-3.405,5.457-3.853,9.977c-1.167,11.769-2.176,21.146-8.356,21.146c-6.938,0-8.159-9.754-9.513-21.112c-1.037-7.636-2.146-18.59-6.461-18.59c-3.717,0-6.099,7.873-7.627,18.562c-1.996,15.179-3.371,35.952-14.839,36.575V72l65.538,0c3.454,0,6.28-2.826,6.28-6.281V38.355C213.594,41.051,210.949,43.391,207.192,43.391z"/>
	<path style="fill:#4AC7EB;" d="M243.224,31.269l7.705-7.984c0.67-0.726,1.061-1.954,1.061-2.736c0-2.233-1.898-3.685-4.132-3.685h-17.643c-1.675,0-3.015,1.284-3.015,2.959c0,1.619,1.34,2.959,3.015,2.959h13.902l-8.654,8.933c-0.726,0.67-1.005,1.452-1.005,2.177c0,1.619,1.34,2.736,2.792,2.736c1.005,0,2.4-0.614,4.41-0.614c3.908,0,6.477,2.178,6.477,5.695c0,6.142-7.593,9.212-17.531,8.542c-2.065-0.167-3.461,1.34-3.35,3.071c0.056,1.563,1.229,2.736,2.959,2.792c13.902,0.614,23.84-4.746,23.84-14.516C254.055,35.624,249.59,31.269,243.224,31.269z"/>
	<path style="fill:#4AC7EB;" d="M274.186,30.599c-3.964,0-7.259,1.061-9.604,2.177c0.949-7.035,5.975-10.943,11.837-10.943c3.07,0,4.634,0.502,5.639,0.502c1.898,0,2.959-1.172,2.959-2.792c0-1.452-1.005-2.513-2.513-2.848c-1.061-0.223-3.238-0.558-5.639-0.558c-11.334,0-17.866,7.091-18.536,19.43c-0.67,11.78,2.903,20.937,14.852,20.937c9.658,0,14.516-6.253,14.516-13.567C287.697,35.568,282.617,30.599,274.186,30.599zM273.348,50.81c-6.142,0-9.491-4.187-9.156-12.227c2.233-1.172,5.248-2.457,9.156-2.457c5.248,0,8.375,2.401,8.375,6.979C281.723,47.348,279.099,50.81,273.348,50.81z"/>
	<path style="fill:#4AC7EB;" d="M321.919,31.045c-0.559-8.766-6.477-14.795-15.131-14.795c-8.653,0-14.46,5.918-15.074,14.795c-0.224,2.903-0.224,7.481,0,10.44c0.559,8.821,6.421,14.907,15.074,14.907c8.654,0,14.572-6.086,15.131-14.907C322.142,38.527,322.142,34.004,321.919,31.045z M315.945,40.872c-0.447,6.086-3.797,9.827-9.157,9.827c-5.304,0-8.653-3.741-9.101-9.827c-0.167-2.624-0.111-6.7,0-9.268c0.336-6.085,3.797-9.659,9.101-9.659c5.36,0,8.822,3.573,9.157,9.659C316.056,34.172,316.112,38.248,315.945,40.872z"/>
</symbol>


</svg>