<?xml version="1.0" encoding="utf-8"?>
<!-- Generator: Adobe Illustrator 24.1.0, SVG Export Plug-In . SVG Version: 6.00 Build 0)  -->
<svg version="1.1" id="Calque_1" xmlns="http://www.w3.org/2000/svg" xmlns:xlink="http://www.w3.org/1999/xlink" x="0px" y="0px"
	 viewBox="0 0 555 195" style="enable-background:new 0 0 555 195;" xml:space="preserve">
<style type="text/css">.st1{fill:#5BC6E8;}</style>
<g>
	<path class="st1" d="M214.57,25.52c0.96-1.34,2.2-2.43,3.59-3.36c1.27-1.34,2.53-2.27,3.75-2.6c-0.33-0.42-0.61-0.93-0.8-1.53
		c-2.08-6.55-6.36-12.05-9.66-18.03c-0.23,0.24-0.49,0.46-0.8,0.67c-19.81,13.6-26.05,40.56-29.81,62.83
		c-4.23,25.08-5.25,50.7-12.1,75.26c-1.71,6.11-3.46,12.21-5.89,18.08c-2.03,4.93-4.69,11.01-9.79,13.47
		c-16.23,7.83-22.55-28.4-23.94-37.22c-3.39-21.53-3.65-43.8-11.57-64.39c-3.15-8.19-7.8-17.03-16.89-19.54
		c-7.19-1.98-14.76,0.66-19.89,5.88c-7.28,7.41-9.15,19.49-10.68,29.33c-1.73,11.14-2.11,22.43-3.54,33.6
		c-0.87,6.81-5.96,33.47-17.98,25.34c-5.25-3.55-6.41-12.25-7.46-17.95c-1.28-6.93-2.13-13.76-4.17-20.55
		c-2.46-8.19-5.7-19.13-14.48-22.43c-7.21-2.71-15.08-2.66-22.45-0.78L0,102.33c2.38-1.18,4.95-1.93,7.88-1.84
		c7.34,0.23,12.57,5.23,15.06,11.78c4.92,12.91,4.94,27.38,10.91,40c2.89,6.1,7.56,12.54,14.4,14.39
		c6.11,1.65,12.67-0.59,17.46-4.48c11.9-9.66,13.62-29.07,15.01-43.2c1.55-15.79,2.09-31.84,8.23-46.88
		c0.97-2.37,3.74-4.06,6.7-2.73c9.05,4.07,11.47,18.71,12.69,29.19c1.71,14.62,2.47,29.35,5,43.88c2.92,16.8,7.72,42.46,25.35,50.19
		c9.01,3.95,20.41,2.1,27.87-4.2c7.67-6.48,11.69-16.34,14.38-25.75c3.45-12.07,5.12-24.69,7.04-37.07
		c2.42-15.58,4.72-31.19,6.94-46.79c1.69-11.88,3.98-23.24,8.14-34.52C205.39,37.97,208.64,29.66,214.57,25.52z"/>
	<path class="st1" d="M532.3,82.9c-8.79,3.28-12.04,14.21-14.52,22.4c-2.05,6.78-2.91,13.61-4.21,20.54
		c-1.06,5.7-2.23,14.4-7.49,17.94c-12.03,8.1-17.07-18.56-17.93-25.38c-1.41-11.18-1.76-22.47-3.47-33.61
		c-1.51-9.84-3.36-21.92-10.63-29.35c-5.12-5.23-12.69-7.89-19.88-5.92c-9.1,2.5-13.77,11.33-16.93,19.51
		c-7.96,20.58-8.26,42.85-11.7,64.37c-1.41,8.82-7.79,45.04-24.01,37.18c-5.1-2.47-7.74-8.56-9.76-13.48
		c-2.41-5.87-4.16-11.98-5.86-18.09c-6.81-24.58-7.78-50.2-11.96-75.28c-3.72-22.28-9.9-49.25-29.69-62.89
		c-0.3-0.21-0.57-0.43-0.8-0.67c-3.31,5.97-7.61,11.47-9.69,18.01c-0.19,0.6-0.47,1.11-0.81,1.53c1.22,0.33,2.48,1.26,3.75,2.61
		c1.39,0.93,2.63,2.03,3.58,3.36c5.93,4.16,9.16,12.47,11.47,18.79c4.13,11.29,6.41,22.66,8.07,34.54
		c2.19,15.61,4.46,31.22,6.85,46.81c1.9,12.38,3.55,25.01,6.97,37.08c2.67,9.41,6.68,19.29,14.33,25.78
		c7.45,6.32,18.84,8.19,27.86,4.26c17.64-7.7,22.49-33.35,25.44-50.14c2.56-14.52,3.34-29.25,5.08-43.87
		c1.25-10.48,3.69-25.12,12.75-29.17c2.96-1.33,5.73,0.37,6.7,2.75c6.12,15.05,6.62,31.1,8.14,46.89
		c1.36,14.14,3.05,33.55,14.93,43.23c4.78,3.9,11.34,6.15,17.45,4.51c6.85-1.84,11.53-8.27,14.43-14.36
		c6-12.61,6.05-27.08,10.99-39.98c2.51-6.54,7.75-11.54,15.08-11.75c3.04-0.09,5.69,0.72,8.13,1.98l0.02-20.8
		C547.57,80.28,539.6,80.18,532.3,82.9z"/>
	<path class="st1" d="M276.58,39.97c-0.02,0-0.04,0-0.06,0c-35.53,0-64.46,31.25-64.5,69.68c-0.02,18.43,6.55,35.82,18.48,48.95
		c12.2,13.43,28.52,20.83,45.94,20.85c0.02,0,0.04,0,0.06,0c17.4,0,33.71-7.37,45.92-20.76c11.96-13.11,18.56-30.49,18.58-48.92
		c0.02-18.43-6.55-35.82-18.48-48.95C310.32,47.39,294,39.99,276.58,39.97z M306.18,143.9c-7.99,8.76-18.53,13.59-29.67,13.59
		c-0.01,0-0.02,0-0.04,0c-11.16-0.01-21.7-4.86-29.68-13.65c-8.25-9.08-12.79-21.22-12.78-34.17c0.02-26.33,19.09-47.74,42.51-47.74
		c0.01,0,0.02,0,0.04,0c11.15,0.01,21.7,4.86,29.68,13.65c8.25,9.08,12.79,21.22,12.78,34.17
		C319.01,122.71,314.44,134.84,306.18,143.9z"/>
</g>
</svg>
