<svg xmlns="http://www.w3.org/2000/svg" width="12" height="17" viewBox="0 0 12 17">
  <g id="microphone" transform="translate(-87.87)">
    <g id="Groupe_77" data-name="Groupe 77" transform="translate(87.87 5.704)">
      <g id="Groupe_76" data-name="Groupe 76" transform="translate(0)">
        <path id="Tracé_48" data-name="Tracé 48" d="M99.441,170.746a.414.414,0,0,0-.429.4v2.486a5.157,5.157,0,0,1-10.284,0v-2.486a.43.43,0,0,0-.858,0v2.486a5.765,5.765,0,0,0,5.571,5.551v2.065H91.222a.4.4,0,1,0,0,.8h5.3a.4.4,0,1,0,0-.8H94.3v-2.065a5.765,5.765,0,0,0,5.571-5.551v-2.486A.414.414,0,0,0,99.441,170.746Z" transform="translate(-87.87 -170.746)" fill="#717171"/>
      </g>
    </g>
    <g id="Groupe_79" data-name="Groupe 79" transform="translate(90.306)">
      <g id="Groupe_78" data-name="Groupe 78" transform="translate(0)">
        <path id="Tracé_49" data-name="Tracé 49" d="M152.167,0h-.53a3.3,3.3,0,0,0-3.3,3.3V8.8a3.3,3.3,0,0,0,3.3,3.3h.53a3.3,3.3,0,0,0,3.3-3.3V3.3A3.3,3.3,0,0,0,152.167,0Zm2.5,4.332h-1.442a.4.4,0,0,0,0,.8h1.442V6.235h-1.442a.4.4,0,0,0,0,.8h1.442V8.138h-1.442a.4.4,0,0,0,0,.8h1.439a2.506,2.506,0,0,1-2.5,2.37h-.53a2.506,2.506,0,0,1-2.5-2.37h1.439a.4.4,0,0,0,0-.8h-1.442V7.031h1.442a.4.4,0,0,0,0-.8h-1.442V5.127h1.442a.4.4,0,0,0,0-.8h-1.442V3.3a2.506,2.506,0,0,1,1.419-2.256V2.168a.4.4,0,0,0,.8,0V.813c.095-.011,1.013-.011,1.108,0V2.168a.4.4,0,0,0,.8,0V1.043A2.506,2.506,0,0,1,154.67,3.3Z" transform="translate(-148.338)" fill="#717171"/>
      </g>
    </g>
  </g>
</svg>
