<svg xmlns="http://www.w3.org/2000/svg" width="20.293" height="20.362" viewBox="0 0 20.293 20.362">
  <defs>
    <style>
      .cls-1 {
        fill: #999;
      }
    </style>
  </defs>
  <path id="Tracé_397" data-name="Tracé 397" class="cls-1" d="M1161.29,6373.831a13.25,13.25,0,0,1,9.471,3.933,13.617,13.617,0,0,1,3.933,9.494h-3.913a9.544,9.544,0,0,0-2.781-6.748,9.385,9.385,0,0,0-6.713-2.792v-3.886Zm5.05,9.355a2.742,2.742,0,0,0-.989-.989,2.626,2.626,0,0,0-1.35-.361,2.692,2.692,0,0,0-1.361.361,2.626,2.626,0,0,0-.989.989,2.7,2.7,0,0,0-.361,1.361,2.632,2.632,0,0,0,.361,1.349,2.746,2.746,0,0,0,.989.989,2.629,2.629,0,0,0,1.361.373,2.554,2.554,0,0,0,1.35-.373,2.87,2.87,0,0,0,.989-.989A2.649,2.649,0,0,0,1166.34,6383.186Zm-5.026-16.289a19.77,19.77,0,0,1,7.866,1.606,20.423,20.423,0,0,1,12.4,18.756h-3.91a16.486,16.486,0,0,0-10.006-15.149,16,16,0,0,0-6.353-1.3v-3.91Z" transform="translate(-1161.287 -6366.897)"/>
</svg>
