<svg xmlns="http://www.w3.org/2000/svg" width="26.994" height="14.976" viewBox="0 0 26.994 14.976">
  <defs>
    <style>
      .cls-1 {
        fill: #999;
      }
    </style>
  </defs>
  <path id="Tracé_406" data-name="Tracé 406" class="cls-1" d="M1249.612,6377.572a.919.919,0,0,1,.262.648v3.635a1.162,1.162,0,0,1-.154.692.878.878,0,0,1-.554.277.968.968,0,0,1-.77-.185.866.866,0,0,1-.37-.754v-3.636a.925.925,0,0,1,.277-.678.888.888,0,0,1,.647-.276A.875.875,0,0,1,1249.612,6377.572Zm2.9-3.265a.909.909,0,0,1,.262.647v8.471a.636.636,0,0,1-.262.554,1.277,1.277,0,0,1-1.325,0,.631.631,0,0,1-.262-.554v-8.471a.948.948,0,0,1,.924-.924.874.874,0,0,1,.659.277Zm2.9,1.109a.955.955,0,0,1,.262.678v7.732a.638.638,0,0,1-.262.555,1.125,1.125,0,0,1-.662.184,1.192,1.192,0,0,1-.678-.184.62.62,0,0,1-.277-.555v-7.732a.936.936,0,0,1,.277-.662.9.9,0,0,1,.678-.293.866.866,0,0,1,.653.277Zm3.127-4.1v12.537q0,.71-.924.708t-.924-.708v-12.537a1.184,1.184,0,0,1,.4-.954.944.944,0,0,1,.832-.246q.608.148.607,1.2Zm16.48,9a4.259,4.259,0,0,1-4.251,4.25l-10.9-.031a.277.277,0,0,1-.185-.139.366.366,0,0,1-.062-.169v-13.647q0-.647.4-.77a6.92,6.92,0,0,1,1.663-.215,7.336,7.336,0,0,1,3.589.909,7.559,7.559,0,0,1,2.68,2.464,7.2,7.2,0,0,1,1.186,3.435,4.21,4.21,0,0,1,1.633-.308,4.07,4.07,0,0,1,2.988,1.233,4.024,4.024,0,0,1,1.25,2.99Z" transform="translate(-1248.025 -6369.59)"/>
</svg>
