<svg xmlns="http://www.w3.org/2000/svg" width="26.868" height="26.897" viewBox="0 0 26.868 26.897">
  <defs>
    <style>
      .cls-1 {
        fill: #999;
      }
    </style>
  </defs>
  <path id="Tracé_407" data-name="Tracé 407" class="cls-1" d="M1313.33,6365.448a13.31,13.31,0,0,1,4.836,4.836,13.074,13.074,0,0,1,1.833,6.808,13.426,13.426,0,1,1-6.669-11.643Zm2.11,10.261a1.227,1.227,0,0,0,.785-.57,1.158,1.158,0,0,0,.139-.955,1.311,1.311,0,0,0-.57-.786,18.454,18.454,0,0,0-5.76-2.095,27.1,27.1,0,0,0-6.346-.555,23.3,23.3,0,0,0-5.575.832,1.226,1.226,0,0,0-.739.616,1.28,1.28,0,0,0-.108.971,1.174,1.174,0,0,0,.6.755,1.19,1.19,0,0,0,.955.091,19.306,19.306,0,0,1,4.959-.739,24.288,24.288,0,0,1,5.637.462,16.116,16.116,0,0,1,5.083,1.817,1.177,1.177,0,0,0,.941.156Zm-.955,2.88a1.1,1.1,0,0,0-.477-.661,16.492,16.492,0,0,0-4.667-1.91,21.018,21.018,0,0,0-5.329-.616,19.144,19.144,0,0,0-5.16.739.98.98,0,0,0-.6.508,1.072,1.072,0,0,0,.431,1.432.969.969,0,0,0,.785.091,16.255,16.255,0,0,1,4.559-.677,18.5,18.5,0,0,1,4.759.555,14.433,14.433,0,0,1,4.112,1.693,1.034,1.034,0,0,0,.8.108,1,1,0,0,0,.647-.478.934.934,0,0,0,.141-.784Zm-1.771,4.482a.794.794,0,0,0,.092-.646.88.88,0,0,0-.37-.524q-5.359-3.264-13.092-1.509a.864.864,0,0,0-.524.385.841.841,0,0,0,.262,1.155.764.764,0,0,0,.631.092q7.053-1.6,11.829,1.325a.94.94,0,0,0,.647.077.793.793,0,0,0,.524-.385Z" transform="translate(-1293.131 -6363.629)"/>
</svg>
