<svg xmlns="http://www.w3.org/2000/svg" width="26.987" height="21.903" viewBox="0 0 26.987 21.903">
  <defs>
    <style>
      .cls-1 {
        fill: #999;
      }
    </style>
  </defs>
  <path id="Tracé_2" data-name="Tracé 2" class="cls-1" d="M1092.063,6371.607v.708a15.98,15.98,0,0,1-1.017,5.545,16.524,16.524,0,0,1-3.019,5.052,14.956,14.956,0,0,1-4.929,3.7,16.064,16.064,0,0,1-6.746,1.417,15.742,15.742,0,0,1-4.5-.647,15.3,15.3,0,0,1-4-1.817q.648.063,1.325.062a11.01,11.01,0,0,0,3.666-.616,11.485,11.485,0,0,0,3.2-1.725,5.531,5.531,0,0,1-3.2-1.124,5.339,5.339,0,0,1-1.941-2.726,5.513,5.513,0,0,0,1.017.092,5.654,5.654,0,0,0,1.448-.185,5.338,5.338,0,0,1-2.249-1.032,5.494,5.494,0,0,1-1.586-1.941,5.771,5.771,0,0,1-.6-2.449v-.093a5.2,5.2,0,0,0,2.526.709,5.588,5.588,0,0,1-1.8-1.987,5.419,5.419,0,0,1-.662-2.634,5.507,5.507,0,0,1,.739-2.772,15.8,15.8,0,0,0,11.4,5.79,6.452,6.452,0,0,1-.123-1.263,5.4,5.4,0,0,1,.739-2.772,5.6,5.6,0,0,1,2.018-2.018,5.335,5.335,0,0,1,2.757-.755,5.484,5.484,0,0,1,4.035,1.757,10.714,10.714,0,0,0,3.512-1.355,5.347,5.347,0,0,1-.94,1.771,5.666,5.666,0,0,1-1.494,1.309,11.192,11.192,0,0,0,3.2-.893A11.558,11.558,0,0,1,1092.063,6371.607Z" transform="translate(-1067.852 -6366.126)"/>
</svg>
