<svg xmlns="http://www.w3.org/2000/svg" width="27.983" height="28.014" viewBox="0 0 27.983 28.014">
  <defs>
    <style>
      .cls-1 {
        fill: #999;
      }
    </style>
  </defs>
  <path id="Tracé_50" data-name="Tracé 50" class="cls-1" d="M14.054,0A14.029,14.029,0,0,0,.036,14.092,13.928,13.928,0,0,0,12,28.014V18H8V14h4V10.988c0-3.532,1.865-5.483,5.084-5.483A16.736,16.736,0,0,1,20,5.78V9H18.553A2.431,2.431,0,0,0,16,11.449V14h4.165l-.625,4H16V28.014A13.976,13.976,0,0,0,28.019,14.092,13.984,13.984,0,0,0,14.054,0Z" transform="translate(-0.036)"/>
</svg>
