<svg xmlns="http://www.w3.org/2000/svg" width="12.764" height="14.186" viewBox="0 0 12.764 14.186">
  <path id="ic_fingerprint_24px" d="M13.5,3.752a.329.329,0,0,1-.163-.043,8.116,8.116,0,0,0-3.951-1,8.115,8.115,0,0,0-3.951,1,.355.355,0,0,1-.34-.624,9.025,9.025,0,0,1,8.568-.007.359.359,0,0,1-.163.674ZM3.354,7.476a.37.37,0,0,1-.206-.064.354.354,0,0,1-.085-.5A7.333,7.333,0,0,1,5.723,4.6a8.187,8.187,0,0,1,7.313-.007A7.361,7.361,0,0,1,15.7,6.894a.356.356,0,0,1-.582.411,6.659,6.659,0,0,0-2.4-2.085,7.474,7.474,0,0,0-6.667.007,6.729,6.729,0,0,0-2.412,2.1.309.309,0,0,1-.277.149Zm4.433,8.561a.333.333,0,0,1-.248-.106,7.17,7.17,0,0,1-1.426-1.872,6.3,6.3,0,0,1-.745-3.078A3.928,3.928,0,0,1,9.383,7.156,3.928,3.928,0,0,1,13.4,10.979a.355.355,0,0,1-.709,0A3.218,3.218,0,0,0,9.383,7.866a3.218,3.218,0,0,0-3.305,3.114,5.557,5.557,0,0,0,.66,2.731,6.714,6.714,0,0,0,1.312,1.716.364.364,0,0,1,0,.5.389.389,0,0,1-.262.106Zm5.086-1.312a3.82,3.82,0,0,1-2.2-.631,3.776,3.776,0,0,1-1.688-3.114.355.355,0,0,1,.709,0A3.051,3.051,0,0,0,11.071,13.5a3.11,3.11,0,0,0,1.8.5,4.687,4.687,0,0,0,.738-.071.356.356,0,1,1,.121.7,4.844,4.844,0,0,1-.858.085Zm-1.426,1.461a.415.415,0,0,1-.092-.014,5.534,5.534,0,0,1-2.639-1.489,5.175,5.175,0,0,1-1.539-3.7,2.187,2.187,0,0,1,4.369,0,1.479,1.479,0,0,0,2.951,0A5,5,0,0,0,9.354,6.135,5.178,5.178,0,0,0,4.666,8.993a4.563,4.563,0,0,0-.418,1.986,7.048,7.048,0,0,0,.475,2.56.346.346,0,0,1-.206.454.352.352,0,0,1-.454-.206,7.9,7.9,0,0,1-.518-2.809,5.329,5.329,0,0,1,.482-2.3A5.886,5.886,0,0,1,9.354,5.419a5.713,5.713,0,0,1,5.852,5.554,2.187,2.187,0,0,1-4.369,0A1.428,1.428,0,0,0,9.361,9.6a1.428,1.428,0,0,0-1.475,1.376,4.467,4.467,0,0,0,1.326,3.2,4.823,4.823,0,0,0,2.319,1.312.352.352,0,0,1,.248.433.346.346,0,0,1-.333.27Z" transform="translate(-2.997 -2)" fill="#717171"/>
</svg>
