<svg xmlns="http://www.w3.org/2000/svg" width="21.499" height="14.9" viewBox="0 0 21.499 14.9">
  <defs>
    <style>
      .cls-1 {
        fill: #504848;
      }
    </style>
  </defs>
  <path id="Mail" class="cls-1" d="M3.246,14.9a3.381,3.381,0,0,1-1.906-.593L2,13.581,8.181,6.827l2.33,1.6.11.039h.037a.458.458,0,0,0,.058,0,.442.442,0,0,0,.057,0,.389.389,0,0,0,.115,0h.037L11,8.425l2.348-1.608L19.5,13.561l.649.711a3.553,3.553,0,0,1-2.007.624H3.384ZM.682,13.62h0A4.038,4.038,0,0,1,0,11.314L0,3.572A4.175,4.175,0,0,1,.5,1.554l.778.536L7.362,6.276,1.336,12.9l-.653.716Zm20.151,0h0l-.658-.725L14.153,6.257,20.23,2.09l.783-.531A3.985,3.985,0,0,1,21.5,3.586v7.728a3.817,3.817,0,0,1-.662,2.3ZM10.709,7.4h0l-2.3-1.583a.465.465,0,0,0-.166-.107L1.915,1.374,1.082.8A3.272,3.272,0,0,1,3.216,0c.065,0,.12,0,.168,0h14.8a3.5,3.5,0,0,1,2.212.8l-.838.575L10.71,7.4Z"/>
</svg>
