<svg xmlns="http://www.w3.org/2000/svg" width="26.954" height="23.508" viewBox="0 0 26.954 23.508">
  <defs>
    <style>
      .cls-1 {
        fill: #999;
      }
    </style>
  </defs>
  <path id="Tracé_424" data-name="Tracé 424" class="cls-1" d="M1203.762,6370.871q.954-1.047,1.941-1.971a23.344,23.344,0,0,1,2.618-2.1,7.607,7.607,0,0,1,2.742-1.232,2.2,2.2,0,0,1,2.125.616,5.7,5.7,0,0,1,1.2,2.4,31.2,31.2,0,0,1,.678,3.173q.37,2.31.554,3.05.74,2.9,1.14,3.974.554,1.417,1.094,1.417t1.54-1.309a27.582,27.582,0,0,0,2.2-3.527,4.866,4.866,0,0,0,.585-2.064,2.466,2.466,0,0,0-.431-1.6,1.694,1.694,0,0,0-1.294-.678,3.729,3.729,0,0,0-2.033.647,7.32,7.32,0,0,1,1.817-3.727,7.59,7.59,0,0,1,3.127-2.156,6.338,6.338,0,0,1,3.435-.37,3.58,3.58,0,0,1,2.5,1.663,5.375,5.375,0,0,1,.493,3.881,20.082,20.082,0,0,1-2.218,6.068,33.124,33.124,0,0,1-3.635,5.175,39.791,39.791,0,0,1-3.789,3.881,27.616,27.616,0,0,1-2.8,2.187,3.026,3.026,0,0,1-2.4.494,4.187,4.187,0,0,1-2-1.109,6.437,6.437,0,0,1-1.263-1.755,23.464,23.464,0,0,1-1.017-2.865q-.341-.986-1.355-4.374-.894-2.865-1.325-4.159a10,10,0,0,0-.893-2.218,1,1,0,0,0-1.109-.185,5.311,5.311,0,0,0-1.294.648l-.616.4-1.078-1.417Z" transform="translate(-1203.001 -6365.324)"/>
</svg>
