<svg xmlns="http://www.w3.org/2000/svg" width="26.922" height="18.91" viewBox="0 0 26.922 18.91">
  <defs>
    <style>
      .cls-1 {
        fill: #999;
      }
    </style>
  </defs>
  <path id="Tracé_437" data-name="Tracé 437" class="cls-1" d="M1139.851,6377.082q0,2.25-.031,2.8-.124,1.819-.246,2.649a6.559,6.559,0,0,1-.4,1.51,3.031,3.031,0,0,1-.739,1.17,3.546,3.546,0,0,1-1.879.986q-5.853.432-12.475.308-3.882-.063-5.529-.139a18.207,18.207,0,0,1-2.449-.231,3.594,3.594,0,0,1-1.817-.955,4.171,4.171,0,0,1-.862-1.693,5.679,5.679,0,0,1-.231-.955q-.078-.492-.139-1.479a63.469,63.469,0,0,1,0-7.947l.185-1.509a7.092,7.092,0,0,1,.339-1.479,3.372,3.372,0,0,1,.8-1.232,3.926,3.926,0,0,1,1.817-.924,31.543,31.543,0,0,1,3.743-.247q2.971-.092,6.453-.092t6.453.109q2.971.108,3.773.231a3.773,3.773,0,0,1,1.186.462,3.055,3.055,0,0,1,.909.8,5.63,5.63,0,0,1,.708,1.663,9.409,9.409,0,0,1,.308,1.756q0,.156.092,1.633C1139.84,6374.648,1139.851,6375.588,1139.851,6377.082Zm-12.414,1.51q2.433-1.231,3.45-1.787l-7.239-3.82v7.608q1.263-.7,3.789-2Z" transform="translate(-1112.929 -6367.623)"/>
</svg>
